<svg width="211" height="36" viewBox="0 0 211 36" fill="none" xmlns="http://www.w3.org/2000/svg">
<g clip-path="url(#clip0)">
<path d="M20.0891 14.3014L15.206 22.7355H11.6259C5.38277 22.7355 0.107456 17.8103 -7.44755e-05 11.5701C-0.0570023 8.35195 1.22704 5.4373 3.32704 3.33193C5.38277 1.27081 8.22917 0 11.3728 0H22.5623L20.5129 3.65437C19.3997 5.64594 17.2933 6.87882 15.0036 6.87882H11.4551C9.10206 6.87882 7.05898 8.64911 6.8882 10.9947C6.79332 12.3477 7.29934 13.5933 8.17856 14.4658C8.97555 15.275 10.0951 15.7682 11.3222 15.7682L17.344 15.7619C18.4509 15.7619 19.4819 15.2118 20.0891 14.3014Z" fill="url(#paint0_linear)"/>
<path d="M26.2943 3.67334L25.3013 5.29821L25.7946 4.43836C25.9528 4.17281 26.1172 3.91992 26.2943 3.67334Z" fill="url(#paint1_linear)"/>
<path d="M29.6214 19.0559C29.6973 18.9294 29.7796 18.7966 29.8681 18.6765L26.6548 24.0569L29.6214 19.0559Z" fill="url(#paint2_linear)"/>
<path d="M52.4558 11.3678C52.4558 14.51 51.1844 17.3488 49.1224 19.4036C47.0667 21.4647 44.2203 22.7355 41.0829 22.7355H36.3579C35.9088 22.7355 35.4913 22.9378 35.2067 23.2792L39.4826 15.7745H41.1209C43.5814 15.7745 45.5676 13.7829 45.5676 11.3298C45.5676 10.1033 45.0679 8.99684 44.2645 8.18757C43.4612 7.39094 42.348 6.88514 41.1209 6.88514H34.2326C33.0561 6.88514 31.9618 7.51739 31.3735 8.5353L28.5398 13.4415L36.1998 0H41.0829C47.3703 0 52.4558 5.08957 52.4558 11.3678Z" fill="url(#paint3_linear)"/>
<path d="M36.1998 0L28.5398 13.4352L25.7314 18.3035C24.1437 21.0474 21.2151 22.7355 18.0398 22.7355H15.2061L20.0892 14.3014L20.0955 14.2824C20.1335 14.2255 20.1714 14.1749 20.2031 14.1117L24.9723 5.85458L25.3013 5.29821L26.2943 3.67334C27.9452 1.37829 30.6145 0 33.4862 0H36.1998Z" fill="url(#paint4_linear)"/>
<path d="M20.2093 14.118C20.1777 14.1749 20.1398 14.2318 20.1018 14.2887L24.9786 5.86722L20.2093 14.118Z" fill="url(#paint5_linear)"/>
<path d="M39.489 15.7682L35.213 23.2729L35.2067 23.2793C35.1498 23.3425 35.0992 23.4184 35.0549 23.4879L32.4805 27.9958C29.8049 32.6744 24.9471 35.6839 19.5642 35.9937L26.6043 24.1391L26.6549 24.0569L29.8682 18.6765L29.8871 18.6512C31.1395 16.8493 33.2079 15.7619 35.4281 15.7619H39.489V15.7682Z" fill="url(#paint6_linear)"/>
<path d="M66.3399 19.5617C64.3981 17.5638 63.424 14.8767 63.424 11.5069C63.424 8.09907 64.3727 5.4057 66.2767 3.42678C68.1806 1.44785 70.7487 0.455231 73.9746 0.455231C76.5933 0.455231 78.8135 1.1507 80.6352 2.53532C82.5011 3.9389 83.6207 5.93047 83.9939 8.51002H78.9083C78.5921 7.3214 78.0038 6.40465 77.1372 5.75976C76.277 5.11487 75.2207 4.79243 73.9683 4.79243C72.2668 4.79243 70.9511 5.37409 70.0276 6.54374C69.1041 7.7134 68.6423 9.36355 68.6423 11.5069C68.6423 13.6439 69.1041 15.3003 70.0276 16.47C70.9511 17.6396 72.2604 18.2213 73.9683 18.2213C75.2776 18.2213 76.3845 17.842 77.2954 17.0896C78.2062 16.3372 78.7818 15.2877 79.0222 13.941H84.0445C83.7282 16.6723 82.6466 18.7966 80.8059 20.3014C78.94 21.8061 76.6629 22.5585 73.9683 22.5585C70.8246 22.5648 68.2818 21.5659 66.3399 19.5617Z" fill="#1D275C"/>
<path d="M96.0373 22.0906C95.797 21.6354 95.6705 21.0601 95.6515 20.3646C94.6205 21.7492 92.9885 22.4447 90.7494 22.4447C89.0668 22.4447 87.7132 22.0274 86.6885 21.1992C85.6701 20.3646 85.1578 19.2202 85.1578 17.7534C85.1578 14.902 87.1629 13.3087 91.1605 12.9673L93.5704 12.7587C94.8988 12.6196 95.5629 12.1138 95.5629 11.2413C95.5629 10.2107 94.7786 9.69863 93.2162 9.69863C92.2674 9.69863 91.5969 9.84405 91.2111 10.1286C90.8253 10.4131 90.5912 10.9442 90.5153 11.7155H85.9042C86.1825 8.1686 88.6304 6.39832 93.2479 6.39832C97.8084 6.39832 100.086 7.9726 100.086 11.1212V19.2645C100.086 20.5543 100.294 21.49 100.712 22.0843H96.0373V22.0906ZM94.6394 18.5058C95.253 17.9621 95.5629 17.1465 95.5629 16.0527V14.921C95.2846 15.2181 94.7723 15.4141 94.0195 15.5153L92.1156 15.7239C90.6292 15.882 89.8828 16.4953 89.8828 17.5638C89.8828 18.1012 90.0789 18.5248 90.4774 18.8409C90.8759 19.157 91.4262 19.3151 92.1409 19.3151C93.1909 19.3214 94.0259 19.0495 94.6394 18.5058Z" fill="#1D275C"/>
<path d="M116.462 8.56692C117.651 10.0148 118.245 11.9621 118.245 14.4215C118.245 16.8746 117.651 18.8282 116.462 20.2761C115.254 21.7239 113.615 22.4447 111.56 22.4447C109.599 22.4447 108.093 21.705 107.043 20.2192V27.9136H102.407V6.75238H106.923V8.80085C107.973 7.19495 109.517 6.392 111.56 6.392C113.615 6.39832 115.254 7.11908 116.462 8.56692ZM112.686 17.5827C113.261 16.8177 113.546 15.7239 113.546 14.3014C113.546 11.5069 112.458 10.1096 110.276 10.1096C108.074 10.1096 106.974 11.5448 106.974 14.4152C106.974 17.2856 108.074 18.7208 110.276 18.7208C111.307 18.7271 112.11 18.3477 112.686 17.5827Z" fill="#1D275C"/>
<path d="M120.149 22.0906V6.75238H124.786V22.0843H120.149V22.0906ZM120.263 5.00106V1.08115H124.691V5.00106H120.263Z" fill="#1D275C"/>
<path d="M136.203 10.1412H133.262V17.3045C133.262 17.8167 133.388 18.1707 133.648 18.3604C133.907 18.5501 134.362 18.6449 135.014 18.6449H136.203V22.0906C135.646 22.1665 134.938 22.2108 134.065 22.2108C132.142 22.2108 130.757 21.8693 129.903 21.1865C129.049 20.5037 128.625 19.3783 128.625 17.8167V10.1412H126.336V6.75238H128.625V2.20654H133.262V6.75238H136.203V10.1412Z" fill="#1D275C"/>
<path d="M148.095 22.0906C147.854 21.6354 147.728 21.0601 147.709 20.3646C146.678 21.7492 145.046 22.4447 142.807 22.4447C141.124 22.4447 139.771 22.0274 138.746 21.1992C137.727 20.3646 137.215 19.2202 137.215 17.7534C137.215 14.902 139.22 13.3087 143.218 12.9673L145.628 12.7587C146.956 12.6196 147.62 12.1138 147.62 11.2413C147.62 10.2107 146.836 9.69863 145.274 9.69863C144.325 9.69863 143.654 9.84405 143.268 10.1286C142.883 10.4131 142.649 10.9442 142.573 11.7155H137.968C138.246 8.1686 140.694 6.39832 145.312 6.39832C149.872 6.39832 152.149 7.9726 152.149 11.1212V19.2645C152.149 20.5543 152.358 21.49 152.775 22.0843H148.095V22.0906ZM146.697 18.5058C147.31 17.9621 147.62 17.1465 147.62 16.0527V14.921C147.342 15.2181 146.83 15.4141 146.077 15.5153L144.173 15.7239C142.687 15.882 141.94 16.4953 141.94 17.5638C141.94 18.1012 142.136 18.5248 142.535 18.8409C142.933 19.157 143.484 19.3151 144.198 19.3151C145.248 19.3214 146.083 19.0495 146.697 18.5058Z" fill="#1D275C"/>
<path d="M154.426 22.0906V0.929413H159.063V22.0843H154.426V22.0906Z" fill="#1D275C"/>
<path d="M171.517 0.929413C173.953 0.929413 175.869 1.56798 177.254 2.84511C178.64 4.12225 179.335 5.86092 179.335 8.06113C179.335 10.2613 178.64 12 177.254 13.2771C175.869 14.5543 173.953 15.1929 171.517 15.1929H166.913V22.0843H161.89V0.929413H171.517ZM171.195 10.9442C172.188 10.9442 172.953 10.6976 173.497 10.2044C174.041 9.71129 174.313 8.99685 174.313 8.06745C174.313 7.13805 174.035 6.42362 173.478 5.93047C172.922 5.43732 172.163 5.19074 171.188 5.19074H166.906V10.9568H171.195V10.9442Z" fill="#1D275C"/>
<path d="M190.367 22.0906C190.126 21.6354 190 21.0601 189.981 20.3646C188.95 21.7492 187.318 22.4447 185.079 22.4447C183.396 22.4447 182.043 22.0274 181.018 21.1992C180 20.3646 179.487 19.2202 179.487 17.7534C179.487 14.902 181.492 13.3087 185.49 12.9673L187.9 12.7587C189.228 12.6196 189.892 12.1138 189.892 11.2413C189.892 10.2107 189.108 9.69863 187.546 9.69863C186.597 9.69863 185.926 9.84405 185.541 10.1286C185.155 10.4131 184.921 10.9442 184.845 11.7155H180.24C180.518 8.1686 182.966 6.39832 187.584 6.39832C192.144 6.39832 194.421 7.9726 194.421 11.1212V19.2645C194.421 20.5543 194.63 21.49 195.048 22.0843H190.367V22.0906ZM188.969 18.5058C189.582 17.9621 189.892 17.1465 189.892 16.0527V14.921C189.614 15.2181 189.102 15.4141 188.349 15.5153L186.445 15.7239C184.959 15.882 184.212 16.4953 184.212 17.5638C184.212 18.1012 184.408 18.5248 184.807 18.8409C185.205 19.157 185.756 19.3151 186.47 19.3151C187.52 19.3214 188.355 19.0495 188.969 18.5058Z" fill="#1D275C"/>
<path d="M206.212 6.75238H211L205.44 22.6786C204.744 24.6575 203.865 26.0232 202.796 26.7819C201.689 27.5532 200.019 27.9389 197.799 27.9389C197.426 27.9389 196.819 27.9199 195.984 27.882V24.3161H197.47C199.013 24.3161 199.792 23.6017 199.792 22.1791C199.792 21.5469 199.551 20.5543 199.077 19.2076L194.674 6.7587H199.671L200.354 8.9273C201.348 12.2529 202.22 15.471 202.973 18.5817C203.745 15.3509 204.599 12.1454 205.529 8.95259L206.212 6.75238Z" fill="#1D275C"/>
</g>
<defs>
<linearGradient id="paint0_linear" x1="1.73047" y1="2.73926" x2="21.2269" y2="15.0636" gradientUnits="userSpaceOnUse">
<stop stop-color="#8A2387"/>
<stop offset="0.54" stop-color="#E94057"/>
<stop offset="0.6348" stop-color="#ED5441"/>
<stop offset="0.7476" stop-color="#F0642F"/>
<stop offset="0.8664" stop-color="#F16E25"/>
<stop offset="1" stop-color="#F27121"/>
</linearGradient>
<linearGradient id="paint1_linear" x1="25.3021" y1="4.48615" x2="26.2974" y2="4.48615" gradientUnits="userSpaceOnUse">
<stop stop-color="#8A2387"/>
<stop offset="0.54" stop-color="#E94057"/>
<stop offset="0.6348" stop-color="#ED5441"/>
<stop offset="0.7476" stop-color="#F0642F"/>
<stop offset="0.8664" stop-color="#F16E25"/>
<stop offset="1" stop-color="#F27121"/>
</linearGradient>
<linearGradient id="paint2_linear" x1="26.6564" y1="21.37" x2="29.8698" y2="21.37" gradientUnits="userSpaceOnUse">
<stop stop-color="#8A2387"/>
<stop offset="0.54" stop-color="#E94057"/>
<stop offset="0.6348" stop-color="#ED5441"/>
<stop offset="0.7476" stop-color="#F0642F"/>
<stop offset="0.8664" stop-color="#F16E25"/>
<stop offset="1" stop-color="#F27121"/>
</linearGradient>
<linearGradient id="paint3_linear" x1="57.3397" y1="-12.3625" x2="36.59" y2="19.1642" gradientUnits="userSpaceOnUse">
<stop stop-color="#8A2387"/>
<stop offset="0.54" stop-color="#E94057"/>
<stop offset="0.6348" stop-color="#ED5441"/>
<stop offset="0.7476" stop-color="#F0642F"/>
<stop offset="0.8664" stop-color="#F16E25"/>
<stop offset="1" stop-color="#F27121"/>
</linearGradient>
<linearGradient id="paint4_linear" x1="35.3874" y1="-6.64666" x2="17.9356" y2="25.8478" gradientUnits="userSpaceOnUse">
<stop stop-color="#8A2387"/>
<stop offset="0.54" stop-color="#E94057"/>
<stop offset="0.6348" stop-color="#ED5441"/>
<stop offset="0.7476" stop-color="#F0642F"/>
<stop offset="0.8664" stop-color="#F16E25"/>
<stop offset="1" stop-color="#F27121"/>
</linearGradient>
<linearGradient id="paint5_linear" x1="20.0979" y1="10.0717" x2="24.9748" y2="10.0717" gradientUnits="userSpaceOnUse">
<stop stop-color="#8A2387"/>
<stop offset="0.54" stop-color="#E94057"/>
<stop offset="0.6348" stop-color="#ED5441"/>
<stop offset="0.7476" stop-color="#F0642F"/>
<stop offset="0.8664" stop-color="#F16E25"/>
<stop offset="1" stop-color="#F27121"/>
</linearGradient>
<linearGradient id="paint6_linear" x1="44.4106" y1="-1.80049" x2="26.9589" y2="30.6939" gradientUnits="userSpaceOnUse">
<stop stop-color="#8A2387"/>
<stop offset="0.54" stop-color="#E94057"/>
<stop offset="0.6348" stop-color="#ED5441"/>
<stop offset="0.7476" stop-color="#F0642F"/>
<stop offset="0.8664" stop-color="#F16E25"/>
<stop offset="1" stop-color="#F27121"/>
</linearGradient>
<clipPath id="clip0">
<rect width="211" height="36" fill="white"/>
</clipPath>
</defs>
</svg>
