<svg xmlns:dc="http://purl.org/dc/elements/1.1/" xmlns:cc="http://creativecommons.org/ns#" xmlns:rdf="http://www.w3.org/1999/02/22-rdf-syntax-ns#" xmlns:svg="http://www.w3.org/2000/svg" xmlns="http://www.w3.org/2000/svg" xmlns:sodipodi="http://sodipodi.sourceforge.net/DTD/sodipodi-0.dtd" xmlns:inkscape="http://www.inkscape.org/namespaces/inkscape" width="320px" height="193px" viewBox="0 0 320 193" version="1.1" id="SVGRoot" inkscape:version="0.92.5 (2060ec1f9f, 2020-04-08)" sodipodi:docname="FPT logo 2010.svg">
    <defs id="defs815"/>
    <sodipodi:namedview id="base" pagecolor="#ffffff" bordercolor="#666666" borderopacity="1.0" inkscape:pageopacity="0.0" inkscape:pageshadow="2" inkscape:zoom="2.828" inkscape:cx="177.14286" inkscape:cy="80" inkscape:document-units="px" inkscape:current-layer="layer1" showgrid="false" inkscape:window-width="1920" inkscape:window-height="1001" inkscape:window-x="-9" inkscape:window-y="-9" inkscape:window-maximized="1"/>
    <metadata id="metadata818">
      <rdf:RDF>
        <cc:Work rdf:about="">
          <dc:format>image/svg+xml</dc:format>
          <dc:type rdf:resource="http://purl.org/dc/dcmitype/StillImage"/>
          <dc:title/>
        </cc:Work>
      </rdf:RDF>
    </metadata>
    <g inkscape:label="Layer 1" inkscape:groupmode="layer" id="layer1">
      <path style="fill:#16b14b;stroke-width:1.5774703" inkscape:connector-curvature="0" d="m 256.48492,30.520015 c -16.79528,0 -31.24496,11.032826 -37.03108,26.545672 -0.30134,0.791888 -1.32509,4.068291 -1.32509,4.068291 L 194.74752,162.39338 h 53.70655 c 18.45167,0 34.06702,-13.31069 38.48866,-31.25442 0,0.008 0,0.008 0,0.011 v 0 L 310.16944,30.520015 Z" id="path817"/>
      <path style="fill:#f27227;stroke-width:1.5774703" inkscape:connector-curvature="0" d="m 167.0613,1.2153479 c -17.97997,0 -33.15523,12.1780681 -37.86561,28.7967201 -0.35332,1.241469 -0.64198,2.511337 -0.87392,3.795396 L 91.866446,191.7012 h 53.660824 c 18.3886,0 33.85411,-12.73964 38.1748,-29.9388 v 0 h 0.0142 L 220.78361,1.2169247 H 167.0613 Z" id="path819"/>
      <path style="fill:#1169b0;stroke-width:1.5774703" inkscape:connector-curvature="0" d="m 64.155031,30.520015 c -17.407395,0 -32.293992,11.843644 -37.636848,28.252498 -0.115132,0.367545 -0.233517,0.736675 -0.345478,1.105805 L 25.276681,63.408695 2.4286511,162.39338 H 57.431847 c 16.432531,0 30.5414,-10.90505 36.019994,-26.18285 l 2.17849,-9.41908 22.218639,-96.273012 H 64.155031 Z" id="path821"/>
      <path style="fill:#ffffff;stroke-width:1.5774703" inkscape:connector-curvature="0" d="m 54.115974,63.402388 -0.02169,0.08676 h -0.832952 c -3.833215,0 -7.445593,1.36609 -10.753624,4.066726 -3.18806,2.598086 -5.279784,5.762494 -6.003778,8.357435 H 36.4739 l -12.318412,53.509371 0.700384,-0.009 c 3.874261,0 7.535529,-1.3724 10.859328,-4.09985 3.342654,-2.71167 5.476926,-6.04487 6.339829,-9.88916 l 2.692744,-11.61334 24.498082,0.007 c 3.828542,0 7.523011,-1.42919 10.865665,-4.126667 3.334728,-2.695892 5.464326,-6.007001 6.324059,-9.841826 l 0.154593,-0.701977 -38.431918,-0.02837 2.56026,-11.032827 33.287791,-0.04889 c 3.831626,0 7.450345,-1.351887 10.752036,-4.028855 3.293764,-2.683283 5.353869,-6.054336 6.276759,-9.854465 l 0.17036,-0.708285 z" id="path823"/>
      <path style="fill:#ffffff;stroke-width:1.5774703" inkscape:connector-curvature="0" d="m 190.00243,66.65198 c -2.11692,-2.1217 -4.8759,-3.195964 -8.20754,-3.195964 l -46.97869,-0.05365 -15.17209,65.936684 h 0.0192 l -0.0192,0.0852 0.70038,-0.009 c 3.87585,0 7.53244,-1.3724 10.86091,-4.09985 3.34107,-2.71166 5.47226,-6.04485 6.33825,-9.88917 l 2.72745,-11.74741 32.52275,0.0299 c 3.81745,0 7.22951,-0.43854 10.53904,-3.10761 3.29377,-2.664348 5.63945,-6.896702 6.57018,-10.789893 l 2.85526,-12.217514 c 0.20816,-0.963835 0.32654,-1.973414 0.34698,-3.001923 0.0551,-3.147055 -0.98429,-5.822446 -3.10288,-7.939415 z m -14.65942,22.456866 -31.68663,-0.02995 2.56335,-11.053334 31.6898,0.03312 z" id="path825"/>
      <path style="fill:#ffffff;stroke-width:1.5774703" inkscape:connector-curvature="0" d="m 285.58451,66.691417 c -2.07588,-2.123277 -4.83653,-3.200695 -8.18227,-3.200695 h -20.69173 -1.30458 -27.57418 l -0.0978,0.46851 c -0.22242,1.03482 -0.3423,1.987617 -0.35966,2.904123 -0.0534,3.214891 0.97487,5.923403 3.06033,8.057726 2.0838,2.118537 4.83962,3.194375 8.18861,3.194375 h 10.37186 l -11.81367,51.308794 0.70197,-0.009 c 3.87426,0 7.53244,-1.37241 10.85932,-4.09986 3.34266,-2.71166 5.47384,-6.04486 6.33666,-9.88916 l 8.65873,-37.311897 h 24.45554 l 0.10094,-0.466934 c 0.20983,-0.979611 0.32346,-1.987613 0.34231,-2.995615 0.0517,-3.170716 -0.96694,-5.847683 -3.0524,-7.959914 z" id="path827"/>
      <g transform="matrix(1.5774704,0,0,1.5774704,-91.068045,-97.570566)" id="g833">
        <path style="fill:#1169b0" inkscape:connector-curvature="0" d="m 244.875,157.588 c 0,-3.964 3.23,-7.193 7.197,-7.193 3.977,0 7.203,3.229 7.203,7.193 0,3.97 -3.227,7.204 -7.203,7.204 -3.967,0 -7.197,-3.234 -7.197,-7.204 m 12.652,0 c 0,-3.365 -2.436,-5.806 -5.455,-5.806 -3.006,0 -5.438,2.44 -5.438,5.806 0,3.372 2.432,5.807 5.438,5.807 3.02,0 5.455,-2.435 5.455,-5.807 m -8.222,-4.109 h 3.031 c 1.953,0 3.018,0.68 3.018,2.397 0,1.397 -0.803,2.071 -2.141,2.192 l 2.193,3.566 h -1.555 l -2.111,-3.514 h -0.918 v 3.514 h -1.518 v -8.155 z m 1.517,3.493 h 1.34 c 0.889,0 1.67,-0.127 1.67,-1.214 0,-0.967 -0.873,-1.12 -1.652,-1.12 h -1.357 v 2.334 z" id="path831"/>
      </g>
    </g>
  </svg>