<svg width="58" height="58" viewBox="0 0 72 75" fill="none" xmlns="http://www.w3.org/2000/svg">
    <g clip-path="url(#clip0_9_29868)">
    <path d="M8.73871 21.1675C8.46969 15.9928 12.9232 11.9749 17.5051 11.737C23.5946 11.4206 27.321 16.2995 27.5791 20.3258C27.9826 26.7022 23.0565 30.4302 18.5049 30.5908C12.7911 30.7949 8.46969 26.0754 8.73871 21.1675ZM11.2836 21.2666C11.2756 22.1765 11.45 23.0788 11.7966 23.9206C12.1432 24.7624 12.6551 25.5268 13.3021 26.1688C13.9491 26.8109 14.7182 27.3177 15.5644 27.6596C16.4106 28.0015 17.3168 28.1716 18.2298 28.1598C22.2179 28.1091 25.1263 24.9269 25.0839 21.0963C25.0439 17.384 21.8532 14.284 18.1268 14.3335C14.3253 14.3818 11.2339 17.5108 11.2775 21.2666H11.2836Z" fill="url(#paint0_linear_9_29868)"/>
    <path d="M61.3722 21.2316C61.7115 25.619 57.5283 30.8626 51.3395 30.574C46.6521 30.3554 42.4337 26.0707 42.4458 21.1471C42.4592 15.9542 46.7672 11.678 51.9587 11.7275C57.4592 11.7722 61.6558 16.3334 61.3722 21.2316ZM45.0828 21.327C45.1179 25.0538 48.0312 28.1828 52.012 28.1695C56.0111 28.1563 58.9558 25.0297 58.9086 21.1193C58.8767 19.3069 58.1288 17.5802 56.8271 16.3141C55.5255 15.0479 53.7752 14.3445 51.9563 14.3565C48.1148 14.4036 45.0258 17.535 45.0828 21.327Z" fill="url(#paint1_linear_9_29868)"/>
    <path d="M20.302 35.0216C23.6285 35.5276 26.2521 34.4855 28.145 31.6958C28.4613 31.2296 28.7206 30.7297 29.0248 30.2539C30.9371 27.2879 34.415 25.9957 37.653 27.0548C39.7859 27.7528 41.2558 29.2165 42.281 31.1548C43.7025 33.8442 46.6824 35.6979 50.5373 35.0132C53.116 34.5567 55.7348 34.3285 58.3354 33.9927C59.3945 33.8563 60.484 33.82 61.5019 33.5338C63.7838 32.8926 64.8829 31.3154 64.8829 28.9279C64.8829 21.7851 64.8829 14.6414 64.8829 7.49702C64.8779 6.91496 64.826 6.33423 64.7278 5.76043C64.4709 4.20861 62.7889 2.65075 61.228 2.52515C57.99 2.26551 54.7532 1.96118 51.5103 1.80057C46.188 1.53851 40.8644 1.22694 36.3552 1.19675C31.4921 1.17139 27.4543 1.37306 23.4237 1.57474C18.9036 1.80178 14.3992 2.20634 9.88753 2.46236C7.96435 2.57104 5.79033 4.38613 5.86183 6.93064C5.92969 9.34593 5.87758 11.7612 5.87758 14.1765C5.87758 19.1278 5.87758 24.0792 5.87758 29.0305C5.87758 31.3963 7.0167 32.9699 9.27071 33.5568M18.5049 30.5968C12.7911 30.7949 8.46969 26.0754 8.73872 21.1676C8.46969 15.9928 12.9232 11.975 17.5051 11.7371C23.5946 11.4207 27.321 16.2995 27.5791 20.3258C27.9802 26.7022 23.0565 30.4326 18.5049 30.5908V30.5968ZM51.3455 30.5799C46.6582 30.3613 42.4398 26.0766 42.4519 21.1531C42.4652 15.9602 46.7733 11.6839 51.9648 11.7334C57.4653 11.7817 61.6594 16.343 61.3783 21.2412C61.7116 25.6189 57.5283 30.8625 51.3395 30.5739L51.3455 30.5799Z" fill="url(#paint2_linear_9_29868)"/>
    <path d="M18.1205 14.3323C14.3251 14.3819 11.2337 17.5145 11.2773 21.2666C11.2693 22.1765 11.4438 23.0788 11.7904 23.9207C12.137 24.7625 12.6488 25.5268 13.2958 26.1689C13.9428 26.811 14.712 27.3178 15.5582 27.6597C16.4044 28.0016 17.3105 28.1716 18.2235 28.1599C22.2117 28.1091 25.1201 24.927 25.0777 21.0964C25.0377 17.3901 21.8469 14.284 18.1205 14.3323Z" fill="url(#paint3_linear_9_29868)"/>
    <path d="M51.9561 14.3578C48.1146 14.4037 45.0256 17.5351 45.0826 21.3271C45.1177 25.0539 48.031 28.1829 52.0118 28.1696C56.0109 28.1564 58.9556 25.0298 58.9084 21.1194C58.8762 19.3072 58.1281 17.5808 56.8265 16.3149C55.5249 15.049 53.7748 14.3458 51.9561 14.3578Z" fill="url(#paint4_linear_9_29868)"/>
    </g>
    <path d="M14.8795 49.682C14.9689 49.682 15.0404 49.7178 15.094 49.7893C15.1655 49.8429 15.2012 49.9144 15.2012 50.0037V53.1941C15.2012 53.2835 15.1655 53.3639 15.094 53.4354C15.0404 53.489 14.9689 53.5158 14.8795 53.5158H10.1878C10.0984 53.5158 10.0537 53.5605 10.0537 53.6499V68.1273C10.0537 68.2166 10.018 68.2971 9.94648 68.3685C9.89286 68.4222 9.82137 68.449 9.732 68.449H5.92499C5.83563 68.449 5.7552 68.4222 5.6837 68.3685C5.63008 68.2971 5.60327 68.2166 5.60327 68.1273V53.6499C5.60327 53.5605 5.55859 53.5158 5.46922 53.5158H0.938347C0.848981 53.5158 0.768551 53.489 0.697058 53.4354C0.643438 53.3639 0.616628 53.2835 0.616628 53.1941V50.0037C0.616628 49.9144 0.643438 49.8429 0.697058 49.7893C0.768551 49.7178 0.848981 49.682 0.938347 49.682H14.8795ZM32.9273 49.682C33.0167 49.682 33.0882 49.7178 33.1418 49.7893C33.2133 49.8429 33.2491 49.9144 33.2491 50.0037V53.1941C33.2491 53.2835 33.2133 53.3639 33.1418 53.4354C33.0882 53.489 33.0167 53.5158 32.9273 53.5158H28.2356C28.1462 53.5158 28.1015 53.5605 28.1015 53.6499V68.1273C28.1015 68.2166 28.0658 68.2971 27.9943 68.3685C27.9407 68.4222 27.8692 68.449 27.7798 68.449H23.9728C23.8835 68.449 23.803 68.4222 23.7315 68.3685C23.6779 68.2971 23.6511 68.2166 23.6511 68.1273V53.6499C23.6511 53.5605 23.6064 53.5158 23.517 53.5158H18.9862C18.8968 53.5158 18.8164 53.489 18.7449 53.4354C18.6913 53.3639 18.6645 53.2835 18.6645 53.1941V50.0037C18.6645 49.9144 18.6913 49.8429 18.7449 49.7893C18.8164 49.7178 18.8968 49.682 18.9862 49.682H32.9273ZM37.7311 68.449C37.6417 68.449 37.5613 68.4222 37.4898 68.3685C37.4361 68.2971 37.4093 68.2166 37.4093 68.1273V50.0037C37.4093 49.9144 37.4361 49.8429 37.4898 49.7893C37.5613 49.7178 37.6417 49.682 37.7311 49.682H44.5676C45.9617 49.682 47.195 49.9233 48.2674 50.4059C49.3398 50.8885 50.1709 51.5766 50.7607 52.4703C51.3505 53.3639 51.6454 54.3916 51.6454 55.5534V62.5776C51.6454 63.7394 51.3505 64.7671 50.7607 65.6607C50.1709 66.5544 49.3398 67.2425 48.2674 67.7251C47.195 68.2077 45.9617 68.449 44.5676 68.449H37.7311ZM41.8598 64.5079C41.8598 64.5973 41.9045 64.642 41.9938 64.642H44.7553C45.4702 64.642 46.0511 64.3917 46.4979 63.8913C46.9447 63.373 47.1771 62.6848 47.195 61.8269V56.3041C47.195 55.4462 46.9626 54.767 46.4979 54.2665C46.0511 53.7482 45.4612 53.489 44.7284 53.489H41.9938C41.9045 53.489 41.8598 53.5337 41.8598 53.6231V64.5079ZM56.5381 68.449C56.4488 68.449 56.3684 68.4222 56.2969 68.3685C56.2432 68.2971 56.2164 68.2166 56.2164 68.1273V50.0037C56.2164 49.9144 56.2432 49.8429 56.2969 49.7893C56.3684 49.7178 56.4488 49.682 56.5381 49.682H60.3452C60.4345 49.682 60.506 49.7178 60.5596 49.7893C60.6311 49.8429 60.6669 49.9144 60.6669 50.0037V56.9743C60.6669 57.0279 60.6848 57.0637 60.7205 57.0816C60.7562 57.0816 60.792 57.0637 60.8277 57.0279L66.2433 49.8697C66.3506 49.7446 66.4757 49.682 66.6187 49.682H70.9619C71.1406 49.682 71.23 49.7446 71.23 49.8697C71.23 49.9233 71.2032 49.9948 71.1496 50.0842L65.3586 57.8322C65.3229 57.9037 65.3139 57.9663 65.3318 58.0199L71.3908 68.0736C71.4266 68.1809 71.4445 68.2434 71.4445 68.2613C71.4445 68.3864 71.3551 68.449 71.1764 68.449H66.9136C66.717 68.449 66.5829 68.3775 66.5114 68.2345L62.3023 61.0762C62.2487 60.969 62.1861 60.969 62.1146 61.0762L60.7205 62.9797C60.6848 63.0512 60.6669 63.1049 60.6669 63.1406V68.1273C60.6669 68.2166 60.6311 68.2971 60.5596 68.3685C60.506 68.4222 60.4345 68.449 60.3452 68.449H56.5381Z" fill="#0C42BC"/>
    <defs>
    <linearGradient id="paint0_linear_9_29868" x1="11.4181" y1="14.4856" x2="24.7878" y2="27.9018" gradientUnits="userSpaceOnUse">
    <stop stop-color="#7DE1FF"/>
    <stop offset="1" stop-color="#2590DB"/>
    </linearGradient>
    <linearGradient id="paint1_linear_9_29868" x1="45.9977" y1="15.1789" x2="58.4146" y2="27.6389" gradientUnits="userSpaceOnUse">
    <stop stop-color="#7DE1FF"/>
    <stop offset="1" stop-color="#2590DB"/>
    </linearGradient>
    <linearGradient id="paint2_linear_9_29868" x1="35.3724" y1="5.63725" x2="35.3724" y2="23.7036" gradientUnits="userSpaceOnUse">
    <stop stop-color="#0940CC"/>
    <stop offset="1" stop-color="#093997"/>
    </linearGradient>
    <linearGradient id="paint3_linear_9_29868" x1="18.1775" y1="5.63731" x2="18.1775" y2="23.7037" gradientUnits="userSpaceOnUse">
    <stop stop-color="#0940CC"/>
    <stop offset="1" stop-color="#093997"/>
    </linearGradient>
    <linearGradient id="paint4_linear_9_29868" x1="51.9949" y1="5.63742" x2="51.9949" y2="23.7038" gradientUnits="userSpaceOnUse">
    <stop stop-color="#0940CC"/>
    <stop offset="1" stop-color="#093997"/>
    </linearGradient>
    <clipPath id="clip0_9_29868">
    <rect width="61.8118" height="35.7466" fill="white" transform="translate(5.09399)"/>
    </clipPath>
    </defs>
    </svg>
    